<svg xmlns="http://www.w3.org/2000/svg" viewBox="0 0 1000 620" width="100%" height="100%">
<rect x="0" y="0" width="1000" height="620" fill="#fafafa"></rect>
<rect x="0" y="0" width="1000" height="42" fill="#fff3e0"></rect>
<text x="20" y="28" fill="#111" font-family="monospace" font-size="16" font-weight="bold">v3.x — Sensing The World</text>
<text x="30" y="60" fill="#666" font-family="monospace" font-size="9" font-weight="bold">Versions 1-5</text>
<text x="510" y="60" fill="#666" font-family="monospace" font-size="9" font-weight="bold">Versions 6-10</text>
<rect x="30" y="65" width="56" height="22" rx="3" ry="3" fill="#e65100"></rect>
<text x="58" y="80" text-anchor="middle" fill="#fff" font-family="monospace" font-size="9" font-weight="bold">v3.0</text>
<text x="95" y="74" fill="#111" font-family="monospace" font-size="11" font-weight="bold">IMU raw logging</text>
<text x="95" y="89" fill="#555" font-family="monospace" font-size="9">MPU6050 accel+gyro</text>
<rect x="380" y="65" width="96" height="18" rx="3" fill="#fff3e0" stroke="#e65100" stroke-width="1"></rect>
<text x="428" y="78" text-anchor="middle" fill="#e65100" font-family="monospace" font-size="7">discard first 100</text>
<line x1="58" y1="87" x2="58" y2="112" stroke="#e65100" stroke-width="1.5" stroke-dasharray="3,2"></line>
<polygon points="54,109 58,115 62,109" fill="#e65100"></polygon>
<circle cx="58" cy="95" r="2" fill="#e65100"></circle>
<text x="65" y="99" fill="#999" font-family="monospace" font-size="8">#vi</text>
<rect x="30" y="117" width="56" height="22" rx="3" ry="3" fill="#ef6c00"></rect>
<text x="58" y="132" text-anchor="middle" fill="#fff" font-family="monospace" font-size="9" font-weight="bold">v3.1</text>
<text x="95" y="126" fill="#111" font-family="monospace" font-size="11" font-weight="bold">IMU calibration</text>
<text x="95" y="141" fill="#555" font-family="monospace" font-size="9">Bias + scale calibration</text>
<rect x="380" y="117" width="96" height="18" rx="3" fill="#fff3e0" stroke="#e65100" stroke-width="1"></rect>
<text x="428" y="130" text-anchor="middle" fill="#e65100" font-family="monospace" font-size="7">auto-recal on temp</text>
<line x1="58" y1="139" x2="58" y2="164" stroke="#ef6c00" stroke-width="1.5" stroke-dasharray="3,2"></line>
<polygon points="54,161 58,167 62,161" fill="#ef6c00"></polygon>
<circle cx="58" cy="147" r="2" fill="#ef6c00"></circle>
<text x="65" y="151" fill="#999" font-family="monospace" font-size="8">#vi</text>
<rect x="30" y="169" width="56" height="22" rx="3" ry="3" fill="#f57c00"></rect>
<text x="58" y="184" text-anchor="middle" fill="#fff" font-family="monospace" font-size="9" font-weight="bold">v3.2</text>
<text x="95" y="178" fill="#111" font-family="monospace" font-size="11" font-weight="bold">Complementary filter</text>
<text x="95" y="193" fill="#555" font-family="monospace" font-size="9">Accel+gyro attitude</text>
<rect x="380" y="169" width="96" height="18" rx="3" fill="#fff3e0" stroke="#e65100" stroke-width="1"></rect>
<text x="428" y="182" text-anchor="middle" fill="#e65100" font-family="monospace" font-size="7">alpha=0.92 fix</text>
<line x1="58" y1="191" x2="58" y2="216" stroke="#f57c00" stroke-width="1.5" stroke-dasharray="3,2"></line>
<polygon points="54,213 58,219 62,213" fill="#f57c00"></polygon>
<circle cx="58" cy="199" r="2" fill="#f57c00"></circle>
<text x="65" y="203" fill="#999" font-family="monospace" font-size="8">#vi</text>
<rect x="30" y="221" width="56" height="22" rx="3" ry="3" fill="#e65100"></rect>
<text x="58" y="236" text-anchor="middle" fill="#fff" font-family="monospace" font-size="9" font-weight="bold">v3.3</text>
<text x="95" y="230" fill="#111" font-family="monospace" font-size="11" font-weight="bold">Mag heading</text>
<text x="95" y="245" fill="#555" font-family="monospace" font-size="9">QMC5883L compass</text>
<rect x="380" y="221" width="96" height="18" rx="3" fill="#fff3e0" stroke="#e65100" stroke-width="1"></rect>
<text x="428" y="234" text-anchor="middle" fill="#e65100" font-family="monospace" font-size="7">360 deg hard-iron</text>
<line x1="58" y1="243" x2="58" y2="268" stroke="#e65100" stroke-width="1.5" stroke-dasharray="3,2"></line>
<polygon points="54,265 58,271 62,265" fill="#e65100"></polygon>
<circle cx="58" cy="251" r="2" fill="#e65100"></circle>
<text x="65" y="255" fill="#999" font-family="monospace" font-size="8">#vi</text>
<rect x="30" y="273" width="56" height="22" rx="3" ry="3" fill="#ef6c00"></rect>
<text x="58" y="288" text-anchor="middle" fill="#fff" font-family="monospace" font-size="9" font-weight="bold">v3.4</text>
<text x="95" y="282" fill="#111" font-family="monospace" font-size="11" font-weight="bold">ToF distance</text>
<text x="95" y="297" fill="#555" font-family="monospace" font-size="9">VL53L0X/L1X ranging</text>
<rect x="380" y="273" width="96" height="18" rx="3" fill="#fff3e0" stroke="#e65100" stroke-width="1"></rect>
<text x="428" y="286" text-anchor="middle" fill="#e65100" font-family="monospace" font-size="7">clamp zero reads</text>
<circle cx="58" cy="303" r="2" fill="#ef6c00"></circle>
<text x="65" y="307" fill="#999" font-family="monospace" font-size="8">#vi</text>
<rect x="510" y="65" width="56" height="22" rx="3" ry="3" fill="#f57c00"></rect>
<text x="538" y="80" text-anchor="middle" fill="#fff" font-family="monospace" font-size="9" font-weight="bold">v3.5</text>
<text x="575" y="74" fill="#111" font-family="monospace" font-size="11" font-weight="bold">Multi-ToF fusion</text>
<text x="575" y="89" fill="#555" font-family="monospace" font-size="9">3 sensors median fuse</text>
<rect x="860" y="65" width="96" height="18" rx="3" fill="#fff3e0" stroke="#e65100" stroke-width="1"></rect>
<text x="908" y="78" text-anchor="middle" fill="#e65100" font-family="monospace" font-size="7">stagger 20ms</text>
<line x1="538" y1="87" x2="538" y2="112" stroke="#f57c00" stroke-width="1.5" stroke-dasharray="3,2"></line>
<polygon points="534,109 538,115 542,109" fill="#f57c00"></polygon>
<circle cx="538" cy="95" r="2" fill="#f57c00"></circle>
<text x="545" y="99" fill="#999" font-family="monospace" font-size="8">#vi</text>
<rect x="510" y="117" width="56" height="22" rx="3" ry="3" fill="#e65100"></rect>
<text x="538" y="132" text-anchor="middle" fill="#fff" font-family="monospace" font-size="9" font-weight="bold">v3.6</text>
<text x="575" y="126" fill="#111" font-family="monospace" font-size="11" font-weight="bold">Camera frames</text>
<text x="575" y="141" fill="#555" font-family="monospace" font-size="9">Stable capture loop</text>
<rect x="860" y="117" width="96" height="18" rx="3" fill="#fff3e0" stroke="#e65100" stroke-width="1"></rect>
<text x="908" y="130" text-anchor="middle" fill="#e65100" font-family="monospace" font-size="7">release buffer</text>
<line x1="538" y1="139" x2="538" y2="164" stroke="#e65100" stroke-width="1.5" stroke-dasharray="3,2"></line>
<polygon points="534,161 538,167 542,161" fill="#e65100"></polygon>
<circle cx="538" cy="147" r="2" fill="#e65100"></circle>
<text x="545" y="151" fill="#999" font-family="monospace" font-size="8">#vi</text>
<rect x="510" y="169" width="56" height="22" rx="3" ry="3" fill="#ef6c00"></rect>
<text x="538" y="184" text-anchor="middle" fill="#fff" font-family="monospace" font-size="9" font-weight="bold">v3.7</text>
<text x="575" y="178" fill="#111" font-family="monospace" font-size="11" font-weight="bold">HSV colour detect</text>
<text x="575" y="193" fill="#555" font-family="monospace" font-size="9">RGB-&gt;HSV conversion</text>
<rect x="860" y="169" width="96" height="18" rx="3" fill="#fff3e0" stroke="#e65100" stroke-width="1"></rect>
<text x="908" y="182" text-anchor="middle" fill="#e65100" font-family="monospace" font-size="7">red hue wrap</text>
<line x1="538" y1="191" x2="538" y2="216" stroke="#ef6c00" stroke-width="1.5" stroke-dasharray="3,2"></line>
<polygon points="534,213 538,219 542,213" fill="#ef6c00"></polygon>
<circle cx="538" cy="199" r="2" fill="#ef6c00"></circle>
<text x="545" y="203" fill="#999" font-family="monospace" font-size="8">#vi</text>
<rect x="510" y="221" width="56" height="22" rx="3" ry="3" fill="#f57c00"></rect>
<text x="538" y="236" text-anchor="middle" fill="#fff" font-family="monospace" font-size="9" font-weight="bold">v3.8</text>
<text x="575" y="230" fill="#111" font-family="monospace" font-size="11" font-weight="bold">Blob detection</text>
<text x="575" y="245" fill="#555" font-family="monospace" font-size="9">Pillar blob filtering</text>
<rect x="860" y="221" width="96" height="18" rx="3" fill="#fff3e0" stroke="#e65100" stroke-width="1"></rect>
<text x="908" y="234" text-anchor="middle" fill="#e65100" font-family="monospace" font-size="7">aspect ratio gate</text>
<line x1="538" y1="243" x2="538" y2="268" stroke="#f57c00" stroke-width="1.5" stroke-dasharray="3,2"></line>
<polygon points="534,265 538,271 542,265" fill="#f57c00"></polygon>
<circle cx="538" cy="251" r="2" fill="#f57c00"></circle>
<text x="545" y="255" fill="#999" font-family="monospace" font-size="8">#vi</text>
<rect x="510" y="273" width="56" height="22" rx="3" ry="3" fill="#bf360c"></rect>
<text x="538" y="288" text-anchor="middle" fill="#fff" font-family="monospace" font-size="9" font-weight="bold">v3.9</text>
<text x="575" y="282" fill="#111" font-family="monospace" font-size="11" font-weight="bold">Health monitor</text>
<text x="575" y="297" fill="#555" font-family="monospace" font-size="9">Sensor health checks</text>
<rect x="860" y="273" width="96" height="18" rx="3" fill="#fff3e0" stroke="#e65100" stroke-width="1"></rect>
<text x="908" y="286" text-anchor="middle" fill="#e65100" font-family="monospace" font-size="7">rate-limit logging</text>
<circle cx="538" cy="303" r="2" fill="#bf360c"></circle>
<text x="545" y="307" fill="#999" font-family="monospace" font-size="8">#vi</text>
<rect x="0" y="575" width="1000" height="45" fill="#fff3e0" opacity="0.15"></rect>
<text x="20" y="595" fill="#555" font-family="monospace" font-size="10">Phase: Sensing The World | 10 versions | 10 errors documented and fixed | 90,000+ words of narrative</text>
<text x="20" y="612" fill="#999" font-family="monospace" font-size="8">WRO 2026 Future Engineers - 4WS AWD Robot - Generated 2026-07-30</text>
</svg>