<svg xmlns="http://www.w3.org/2000/svg" viewBox="0 0 1000 680" width="100%" height="100%">
<defs>
  <filter id="shadow" x="-2%" y="-2%" width="104%" height="108%">
    <feDropShadow dx="1" dy="2" stdDeviation="2" flood-opacity="0.15"/>
  </filter>
  <filter id="shadow-sm" x="-2%" y="-2%" width="104%" height="106%">
    <feDropShadow dx="0" dy="1" stdDeviation="1" flood-opacity="0.12"/>
  </filter>
  <linearGradient id="bg-grad" x1="0" y1="0" x2="0" y2="1">
    <stop offset="0%" stop-color="#ffffff"/>
    <stop offset="100%" stop-color="#f5f5f5"/>
  </linearGradient>
  <linearGradient id="title-grad" x1="0" y1="0" x2="1" y2="0">
    <stop offset="0%" stop-color="#e65100"/>
    <stop offset="100%" stop-color="#f09666"/>
  </linearGradient>
  <linearGradient id="badge-grad" x1="0" y1="0" x2="0" y2="1">
    <stop offset="0%" stop-color="#e65100"/>
    <stop offset="100%" stop-color="#a13800"/>
  </linearGradient>
</defs>
<rect x="0" y="0" width="1000" height="680" fill="url(#bg-grad)"></rect>
<rect x="0" y="0" width="1000" height="52" fill="#e65100"></rect>
<rect x="0" y="0" width="1000" height="52" fill="url(#title-grad)" opacity="0.3"></rect>
<text x="24" y="33" fill="#fff" font-family="sans-serif" font-size="18" font-weight="bold">v3.x — Sensing The World</text>
<text x="976" y="33" text-anchor="end" fill="#fff" font-family="sans-serif" font-size="11" opacity="0.8">WRO 2026 Future Engineers</text>
<rect x="24" y="64" width="952" height="44" rx="6" ry="6" fill="#fff3e0" stroke="#e65100" stroke-width="1" filter="url(#shadow-sm)"></rect>
<text x="40" y="82" fill="#e65100" font-family="sans-serif" font-size="11" font-weight="bold">Phase: Sensing The World | 10 versions | 10 documented bugs | 90-version journey</text>
<text x="40" y="98" fill="#a13800" font-family="sans-serif" font-size="10" opacity="0.7">Each version includes a CHANGE.md narrative, code snapshots, error description, root cause analysis, and fix applied</text>
<rect x="34" y="120" width="210" height="22" rx="4" ry="4" fill="#e65100" opacity="0.08"></rect>
<text x="139" y="135" text-anchor="middle" fill="#e65100" font-family="sans-serif" font-size="10" font-weight="bold">Versions 1–5</text>
<rect x="509" y="120" width="210" height="22" rx="4" ry="4" fill="#e65100" opacity="0.08"></rect>
<text x="614" y="135" text-anchor="middle" fill="#e65100" font-family="sans-serif" font-size="10" font-weight="bold">Versions 6–10</text>
<rect x="34" y="148" width="450" height="54" rx="4" ry="4" fill="#fafafa" opacity="0.5"></rect>
<circle cx="58" cy="175" r="6" fill="#e65100" filter="url(#shadow-sm)"></circle>
<circle cx="58" cy="175" r="3" fill="#fff"></circle>
<line x1="58" y1="181" x2="58" y2="223" stroke="#e65100" stroke-width="2" opacity="0.3"></line>
<rect x="72" y="154" width="48" height="20" rx="10" ry="10" fill="#e65100"></rect>
<text x="96" y="168" text-anchor="middle" fill="#fff" font-family="monospace" font-size="9" font-weight="bold">v3.0</text>
<text x="130" y="162" fill="#111" font-family="sans-serif" font-size="12" font-weight="bold">IMU raw logging</text>
<text x="130" y="177" fill="#666" font-family="sans-serif" font-size="10">MPU6050 accel+gyro</text>
<rect x="378" y="154" width="96" height="18" rx="4" ry="4" fill="#fff3e0" stroke="#e65100" stroke-width="1"></rect>
<text x="426" y="166" text-anchor="middle" fill="#c62828" font-family="sans-serif" font-size="7.5" font-weight="bold">DISCARD FIRST 100</text>
<text x="96" y="192" text-anchor="middle" fill="#bbb" font-family="monospace" font-size="7">#1</text>
<circle cx="58" cy="229" r="6" fill="#e65100" filter="url(#shadow-sm)"></circle>
<circle cx="58" cy="229" r="3" fill="#fff"></circle>
<line x1="58" y1="235" x2="58" y2="277" stroke="#e65100" stroke-width="2" opacity="0.3"></line>
<rect x="72" y="208" width="48" height="20" rx="10" ry="10" fill="#e65100"></rect>
<text x="96" y="222" text-anchor="middle" fill="#fff" font-family="monospace" font-size="9" font-weight="bold">v3.1</text>
<text x="130" y="216" fill="#111" font-family="sans-serif" font-size="12" font-weight="bold">IMU calibration</text>
<text x="130" y="231" fill="#666" font-family="sans-serif" font-size="10">Bias + scale calibration</text>
<rect x="378" y="208" width="96" height="18" rx="4" ry="4" fill="#fff3e0" stroke="#e65100" stroke-width="1"></rect>
<text x="426" y="220" text-anchor="middle" fill="#c62828" font-family="sans-serif" font-size="7.5" font-weight="bold">AUTO-RECAL ON TEMP</text>
<text x="96" y="246" text-anchor="middle" fill="#bbb" font-family="monospace" font-size="7">#2</text>
<rect x="34" y="256" width="450" height="54" rx="4" ry="4" fill="#fafafa" opacity="0.5"></rect>
<circle cx="58" cy="283" r="6" fill="#e65100" filter="url(#shadow-sm)"></circle>
<circle cx="58" cy="283" r="3" fill="#fff"></circle>
<line x1="58" y1="289" x2="58" y2="331" stroke="#e65100" stroke-width="2" opacity="0.3"></line>
<rect x="72" y="262" width="48" height="20" rx="10" ry="10" fill="#e65100"></rect>
<text x="96" y="276" text-anchor="middle" fill="#fff" font-family="monospace" font-size="9" font-weight="bold">v3.2</text>
<text x="130" y="270" fill="#111" font-family="sans-serif" font-size="12" font-weight="bold">Complementary filter</text>
<text x="130" y="285" fill="#666" font-family="sans-serif" font-size="10">Accel+gyro attitude</text>
<rect x="378" y="262" width="96" height="18" rx="4" ry="4" fill="#fff3e0" stroke="#e65100" stroke-width="1"></rect>
<text x="426" y="274" text-anchor="middle" fill="#c62828" font-family="sans-serif" font-size="7.5" font-weight="bold">ALPHA=0.92 FIX</text>
<text x="96" y="300" text-anchor="middle" fill="#bbb" font-family="monospace" font-size="7">#3</text>
<circle cx="58" cy="337" r="6" fill="#e65100" filter="url(#shadow-sm)"></circle>
<circle cx="58" cy="337" r="3" fill="#fff"></circle>
<line x1="58" y1="343" x2="58" y2="385" stroke="#e65100" stroke-width="2" opacity="0.3"></line>
<rect x="72" y="316" width="48" height="20" rx="10" ry="10" fill="#e65100"></rect>
<text x="96" y="330" text-anchor="middle" fill="#fff" font-family="monospace" font-size="9" font-weight="bold">v3.3</text>
<text x="130" y="324" fill="#111" font-family="sans-serif" font-size="12" font-weight="bold">Mag heading</text>
<text x="130" y="339" fill="#666" font-family="sans-serif" font-size="10">QMC5883L compass</text>
<rect x="378" y="316" width="96" height="18" rx="4" ry="4" fill="#fff3e0" stroke="#e65100" stroke-width="1"></rect>
<text x="426" y="328" text-anchor="middle" fill="#c62828" font-family="sans-serif" font-size="7.5" font-weight="bold">360 DEG HARD-IRON</text>
<text x="96" y="354" text-anchor="middle" fill="#bbb" font-family="monospace" font-size="7">#4</text>
<rect x="34" y="364" width="450" height="54" rx="4" ry="4" fill="#fafafa" opacity="0.5"></rect>
<circle cx="58" cy="391" r="6" fill="#e65100" filter="url(#shadow-sm)"></circle>
<circle cx="58" cy="391" r="3" fill="#fff"></circle>
<rect x="72" y="370" width="48" height="20" rx="10" ry="10" fill="#e65100"></rect>
<text x="96" y="384" text-anchor="middle" fill="#fff" font-family="monospace" font-size="9" font-weight="bold">v3.4</text>
<text x="130" y="378" fill="#111" font-family="sans-serif" font-size="12" font-weight="bold">ToF distance</text>
<text x="130" y="393" fill="#666" font-family="sans-serif" font-size="10">VL53L0X/L1X ranging</text>
<rect x="378" y="370" width="96" height="18" rx="4" ry="4" fill="#fff3e0" stroke="#e65100" stroke-width="1"></rect>
<text x="426" y="382" text-anchor="middle" fill="#c62828" font-family="sans-serif" font-size="7.5" font-weight="bold">CLAMP ZERO READS</text>
<text x="96" y="408" text-anchor="middle" fill="#bbb" font-family="monospace" font-size="7">#5</text>
<rect x="514" y="148" width="450" height="54" rx="4" ry="4" fill="#fafafa" opacity="0.5"></rect>
<circle cx="538" cy="175" r="6" fill="#e65100" filter="url(#shadow-sm)"></circle>
<circle cx="538" cy="175" r="3" fill="#fff"></circle>
<line x1="538" y1="181" x2="538" y2="223" stroke="#e65100" stroke-width="2" opacity="0.3"></line>
<rect x="552" y="154" width="48" height="20" rx="10" ry="10" fill="#e65100"></rect>
<text x="576" y="168" text-anchor="middle" fill="#fff" font-family="monospace" font-size="9" font-weight="bold">v3.5</text>
<text x="610" y="162" fill="#111" font-family="sans-serif" font-size="12" font-weight="bold">Multi-ToF fusion</text>
<text x="610" y="177" fill="#666" font-family="sans-serif" font-size="10">3 sensors median fuse</text>
<rect x="858" y="154" width="96" height="18" rx="4" ry="4" fill="#fff3e0" stroke="#e65100" stroke-width="1"></rect>
<text x="906" y="166" text-anchor="middle" fill="#c62828" font-family="sans-serif" font-size="7.5" font-weight="bold">STAGGER 20MS</text>
<text x="576" y="192" text-anchor="middle" fill="#bbb" font-family="monospace" font-size="7">#6</text>
<circle cx="538" cy="229" r="6" fill="#e65100" filter="url(#shadow-sm)"></circle>
<circle cx="538" cy="229" r="3" fill="#fff"></circle>
<line x1="538" y1="235" x2="538" y2="277" stroke="#e65100" stroke-width="2" opacity="0.3"></line>
<rect x="552" y="208" width="48" height="20" rx="10" ry="10" fill="#e65100"></rect>
<text x="576" y="222" text-anchor="middle" fill="#fff" font-family="monospace" font-size="9" font-weight="bold">v3.6</text>
<text x="610" y="216" fill="#111" font-family="sans-serif" font-size="12" font-weight="bold">Camera frames</text>
<text x="610" y="231" fill="#666" font-family="sans-serif" font-size="10">Stable capture loop</text>
<rect x="858" y="208" width="96" height="18" rx="4" ry="4" fill="#fff3e0" stroke="#e65100" stroke-width="1"></rect>
<text x="906" y="220" text-anchor="middle" fill="#c62828" font-family="sans-serif" font-size="7.5" font-weight="bold">RELEASE BUFFER</text>
<text x="576" y="246" text-anchor="middle" fill="#bbb" font-family="monospace" font-size="7">#7</text>
<rect x="514" y="256" width="450" height="54" rx="4" ry="4" fill="#fafafa" opacity="0.5"></rect>
<circle cx="538" cy="283" r="6" fill="#e65100" filter="url(#shadow-sm)"></circle>
<circle cx="538" cy="283" r="3" fill="#fff"></circle>
<line x1="538" y1="289" x2="538" y2="331" stroke="#e65100" stroke-width="2" opacity="0.3"></line>
<rect x="552" y="262" width="48" height="20" rx="10" ry="10" fill="#e65100"></rect>
<text x="576" y="276" text-anchor="middle" fill="#fff" font-family="monospace" font-size="9" font-weight="bold">v3.7</text>
<text x="610" y="270" fill="#111" font-family="sans-serif" font-size="12" font-weight="bold">HSV colour detect</text>
<text x="610" y="285" fill="#666" font-family="sans-serif" font-size="10">RGB-&gt;HSV conversion</text>
<rect x="858" y="262" width="96" height="18" rx="4" ry="4" fill="#fff3e0" stroke="#e65100" stroke-width="1"></rect>
<text x="906" y="274" text-anchor="middle" fill="#c62828" font-family="sans-serif" font-size="7.5" font-weight="bold">RED HUE WRAP</text>
<text x="576" y="300" text-anchor="middle" fill="#bbb" font-family="monospace" font-size="7">#8</text>
<circle cx="538" cy="337" r="6" fill="#e65100" filter="url(#shadow-sm)"></circle>
<circle cx="538" cy="337" r="3" fill="#fff"></circle>
<line x1="538" y1="343" x2="538" y2="385" stroke="#e65100" stroke-width="2" opacity="0.3"></line>
<rect x="552" y="316" width="48" height="20" rx="10" ry="10" fill="#e65100"></rect>
<text x="576" y="330" text-anchor="middle" fill="#fff" font-family="monospace" font-size="9" font-weight="bold">v3.8</text>
<text x="610" y="324" fill="#111" font-family="sans-serif" font-size="12" font-weight="bold">Blob detection</text>
<text x="610" y="339" fill="#666" font-family="sans-serif" font-size="10">Pillar blob filtering</text>
<rect x="858" y="316" width="96" height="18" rx="4" ry="4" fill="#fff3e0" stroke="#e65100" stroke-width="1"></rect>
<text x="906" y="328" text-anchor="middle" fill="#c62828" font-family="sans-serif" font-size="7.5" font-weight="bold">ASPECT RATIO GATE</text>
<text x="576" y="354" text-anchor="middle" fill="#bbb" font-family="monospace" font-size="7">#9</text>
<rect x="514" y="364" width="450" height="54" rx="4" ry="4" fill="#fafafa" opacity="0.5"></rect>
<circle cx="538" cy="391" r="6" fill="#e65100" filter="url(#shadow-sm)"></circle>
<circle cx="538" cy="391" r="3" fill="#fff"></circle>
<rect x="552" y="370" width="48" height="20" rx="10" ry="10" fill="#e65100"></rect>
<text x="576" y="384" text-anchor="middle" fill="#fff" font-family="monospace" font-size="9" font-weight="bold">v3.9</text>
<text x="610" y="378" fill="#111" font-family="sans-serif" font-size="12" font-weight="bold">Health monitor</text>
<text x="610" y="393" fill="#666" font-family="sans-serif" font-size="10">Sensor health checks</text>
<rect x="858" y="370" width="96" height="18" rx="4" ry="4" fill="#fff3e0" stroke="#e65100" stroke-width="1"></rect>
<text x="906" y="382" text-anchor="middle" fill="#c62828" font-family="sans-serif" font-size="7.5" font-weight="bold">RATE-LIMIT LOGGING</text>
<text x="576" y="408" text-anchor="middle" fill="#bbb" font-family="monospace" font-size="7">#10</text>
<rect x="0" y="644" width="1000" height="36" fill="#e65100" opacity="0.06"></rect>
<text x="24" y="666" fill="#888" font-family="sans-serif" font-size="9">Total: 10 sub-versions | Each with CHANGE.md + code snapshots | Evolution from v3.0 to v3.9</text>
<text x="976" y="666" text-anchor="end" fill="#ccc" font-family="monospace" font-size="7">WRO 2026 — diagrams/evolution_v3x.svg</text>
</svg>